HIERARCHY
ROOT Hips
{
  OFFSET -31.5692 30.0904 122.763
  CHANNELS 6 Xposition Yposition Zposition Zrotation Xrotation Yrotation
  JOINT LeftUpLeg
  {
    OFFSET 8.64259 1.95398 -2.38835
    CHANNELS 3 Zrotation Xrotation Yrotation
    JOINT LeftLeg
    {
      OFFSET 43.7702 0 0
      CHANNELS 3 Zrotation Xrotation Yrotation
      JOINT LeftFoot
      {
        OFFSET 40.6238 0 0
        CHANNELS 3 Zrotation Xrotation Yrotation
        JOINT LeftToeBase
        {
          OFFSET 12.7242 0 0
          CHANNELS 3 Zrotation Xrotation Yrotation
          End Site
          {
            OFFSET 0 0 0
          }
        }
      }
    }
  }
  JOINT RightUpLeg
  {
    OFFSET -8.2249 1.95398 -2.59336
    CHANNELS 3 Zrotation Xrotation Yrotation
    JOINT RightLeg
    {
      OFFSET 43.5653 0 0
      CHANNELS 3 Zrotation Xrotation Yrotation
      JOINT RightFoot
      {
        OFFSET 40.6238 0 0
        CHANNELS 3 Zrotation Xrotation Yrotation
        JOINT RightToeBase
        {
          OFFSET 12.7242 0 0
          CHANNELS 3 Zrotation Xrotation Yrotation
          End Site
          {
            OFFSET 0 0 0
          }
        }
      }
    }
  }
  JOINT Spine
  {
    OFFSET 0.165834 0.87714 6.61349
    CHANNELS 3 Zrotation Xrotation Yrotation
    JOINT Spine1
    {
      OFFSET 7.38963 1.71661e-005 0
      CHANNELS 3 Zrotation Xrotation Yrotation
      JOINT Spine2
      {
        OFFSET 11.9445 1.14441e-005 0
        CHANNELS 3 Zrotation Xrotation Yrotation
        JOINT Spine3
        {
          OFFSET 14.7254 4.19617e-005 0
          CHANNELS 3 Zrotation Xrotation Yrotation
          JOINT Spine4
          {
            OFFSET 10.9679 0 0
            CHANNELS 3 Zrotation Xrotation Yrotation
            JOINT RightShoulder
            {
              OFFSET 2.46616 -1.6653 3.69651
              CHANNELS 3 Zrotation Xrotation Yrotation
              JOINT RightArm
              {
                OFFSET 13.0012 0 0
                CHANNELS 3 Zrotation Xrotation Yrotation
                JOINT RightForeArm
                {
                  OFFSET 28.7848 1.62311e-005 0
                  CHANNELS 3 Zrotation Xrotation Yrotation
                  JOINT RightHand
                  {
                    OFFSET 26.5688 1.62095e-005 0
                    CHANNELS 3 Zrotation Xrotation Yrotation
                    End Site
                    {
                      OFFSET 0 0 0
                    }
                  }
                }
              }
            }
            JOINT LeftShoulder
            {
              OFFSET 2.38034 -1.29275 -3.7523
              CHANNELS 3 Zrotation Xrotation Yrotation
              JOINT LeftArm
              {
                OFFSET 16.3182 6.07031e-005 0
                CHANNELS 3 Zrotation Xrotation Yrotation
                JOINT LeftForeArm
                {
                  OFFSET 27.0901 0 0
                  CHANNELS 3 Zrotation Xrotation Yrotation
                  JOINT LeftHand
                  {
                    OFFSET 24.5451 1.51738e-005 0
                    CHANNELS 3 Zrotation Xrotation Yrotation
                    End Site
                    {
                      OFFSET 0 0 0
                    }
                  }
                }
              }
            }
            JOINT Neck
            {
              OFFSET 5.0226 -0.0266342 0
              CHANNELS 3 Zrotation Xrotation Yrotation
              JOINT Head
              {
                OFFSET 6.69364 2.86102e-005 0
                CHANNELS 3 Zrotation Xrotation Yrotation
                End Site
                {
                  OFFSET 0 0 0
                }
              }
            }
          }
        }
      }
    }
  }
}
MOTION
Frames:	7
Frame Time:	0.0416667
17.6769 99.383 -32.9733 -132.499 -77.6717 -134.997 -173.816 -4.19209 83.8842 -23.7668 4.8533 -1.48788 78.7501 9.28923 -1.38615 16.1622 -9.45759 6.58658 178.413 15.8153 90.0058 -20.0669 -17.3753 -2.56031 60.2789 -1.3986 -0.682684 25.7169 1.02375 1.76006 -0.0791429 8.17458 -89.7591 10.5245 -0.0469412 0.482971 -1.1465 -0.025644 0.484565 -23.681 -0.189922 0.446538 -3.66838 -0.189924 0.446533 89.9139 -30.7891 -106.629 40.8475 -3.74657 5.18942 4.90897 -31.0083 -13.9003 -21.2467 -0.0900304 -11.1393 -87.4463 -48.895 82.3633 -16.5379 1.54592 -29.5883 -1.88357 4.91553 -0.274879 11.2178 -2.5866 -25.3933 4.15658 2.83863 -2.08815 -1.65264 3.17165 0.783695 
16.4889 98.4453 -25.3388 -141.973 -80.4459 -144.744 -172.52 -10.353 85.6398 -20.3102 9.44232 -1.60212 81.4398 11.8034 -1.41579 18.2857 -8.74044 7.70547 177.725 16.1372 90.3329 -8.81684 -19.4059 -2.68543 59.7249 -0.217035 -0.0655911 26.8491 0.536277 1.60628 -0.309249 8.03736 -89.7264 10.8008 -0.489359 0.591194 -0.870241 -0.462866 0.612153 -23.4055 -0.644415 0.416788 -3.39282 -0.644416 0.416782 89.6634 -32.4104 -106.511 41.3731 -2.9123 7.2163 5.23173 -29.8405 -13.001 -22.1441 -0.0285613 -11.0155 -87.3914 -48.567 82.3883 -19.3471 -0.471378 -33.8247 0.711279 10.4078 -2.81084 12.1693 -2.7213 -25.2382 4.71741 2.30131 -3.39347 -2.47464 2.89479 2.25656 
14.6665 97.5926 -16.9613 -159.301 -82.6439 -160.673 -170.122 -16.8566 89.8477 -16.1366 13.1953 -1.13953 82.6167 14.1916 -1.77039 21.1105 -8.15634 10.163 178.176 18.6021 91.4995 -18.0454 -17.0196 -2.40026 56.9575 2.35246 0.195938 22.8046 1.88184 3.55312 -0.444749 7.87563 -89.9846 11.1227 -0.87811 0.114563 -0.547917 -0.872217 0.153101 -23.0854 -0.871942 -0.154663 -3.07279 -0.871939 -0.154658 90.405 -31.9134 -105.265 42.7697 -2.655 6.93795 6.20625 -27.7143 -10.8725 -19.9795 -0.0294477 -11.0335 -87.569 -50.8944 82.5255 -23.7815 -2.3631 -32.3327 1.99498 14.0328 -1.60181 12.7888 -2.95789 -26.2264 6.24175 1.95227 -1.77924 -3.15174 2.26552 2.26069 
12.671 98.0345 -8.08944 177.88 -82.3752 179.212 -167.327 -19.6801 95.7415 -18.859 17.4798 0.994141 75.9344 11.0421 0.15936 32.2903 -1.79271 11.1436 177.26 16.9168 94.3365 -27.004 -15.4891 -0.99226 61.4798 0.0466309 -1.5395 20.9802 2.58846 3.86928 -0.477034 7.80914 -90.3437 11.2542 -1.1093 -0.573777 -0.416429 -1.13346 -0.524405 -22.9533 -0.885575 -0.88065 -2.9406 -0.885567 -0.880646 90.4371 -31.5285 -105.339 42.4852 -2.47778 5.99295 5.73245 -27.4728 -11.148 -19.8651 -0.0376691 -10.9514 -87.3526 -51.455 82.9411 -24.6637 1.60206 -25.0184 -0.340845 9.17331 -0.0683914 10.5473 -2.05247 -22.8155 5.70926 1.63081 0.320854 -2.58987 1.55667 1.59932 
10.7776 99.0803 -0.714985 153.154 -80.7846 156.273 -167.794 -10.7438 99.5159 -39.3514 21.971 3.93497 67.5399 5.21035 1.26016 27.4296 -3.3646 7.62899 176.002 10.4123 96.2211 -25.667 -12.4151 0.768779 65.0131 -2.36996 -2.29557 21.7681 1.97495 4.86595 -0.364093 7.76479 -90.5241 11.3395 -0.96878 -0.946694 -0.331426 -1.0095 -0.903144 -22.8653 -0.639499 -1.19406 -2.85264 -0.639491 -1.19406 90.2196 -31.3439 -105.828 41.1632 -3.60386 4.01548 5.41115 -26.8143 -12.737 -21.1654 0.12115 -11.459 -87.3604 -50.3103 82.7375 -25.4039 7.11375 -17.4114 -2.56801 9.4208 -0.00435698 2.71358 -0.249478 -17.9932 4.99155 0.343156 0.974335 -3.26968 0.160277 0.281318 
9.7163 99.4838 4.59629 140.575 -78.3283 144.802 -170.513 2.93065 99.8468 -59.9175 15.3893 5.12429 60.7387 -0.415007 0.700747 10.0011 -9.77731 0.566049 175.143 4.8853 97.3 -23.8621 -9.76554 2.06543 66.9863 -3.75155 -1.11377 24.0006 1.24537 3.99391 0.0316058 7.989 -90.6694 10.8923 -0.246446 -1.3075 -0.779299 -0.303747 -1.2954 -23.309 0.157861 -1.32112 -3.29635 0.157853 -1.32113 90.3711 -30.1553 -105.965 38.5519 -3.74876 -0.266694 3.86297 -28.5034 -14.6078 -22.4253 0.121338 -11.5513 -87.781 -51.8802 82.3797 -25.4286 6.45753 -9.90868 -2.91894 12.4294 -0.00502265 2.69971 0.00229212 -15.7762 6.81572 -1.53872 2.01738 -2.64231 -1.91135 -0.148703 
9.55348 99.7256 9.00254 135.563 -76.7208 138.664 -171.681 12.5084 96.3302 -62.8751 9.28651 3.48162 68.2944 4.59085 1.00869 10.7624 -11.0756 3.68597 174.544 1.05607 96.556 -23.5795 -7.80843 1.87026 70.3622 -5.07874 -0.938583 22.6684 1.61539 4.77966 0.611119 8.1356 -90.5944 10.6074 0.943787 -1.26708 -1.06384 0.887111 -1.30739 -23.5988 1.28095 -0.924876 -3.5861 1.28095 -0.92488 89.7664 -30.0149 -107.213 33.7323 -3.79146 -4.16446 4.22023 -28.7133 -13.8891 -24.4869 0.0602984 -10.7112 -87.5398 -53.253 82.9622 -26.5153 4.50763 -1.47458 -2.60632 4.69126 -0.00459885 3.87964 -0.480142 -15.9128 5.6096 -3.37601 3.16365 -0.919038 -3.92969 -0.930572 
